#!OML:ASF X:\für Bonn\!DataBase\2005_08_11_Bastian_Final\c3d\Bastian.ASF
:FULLY-SPECIFIED
:DEGREES
191
root 8.71174 16.1137 -2.34105 868.162 83.1889 -213.077
lowerback 51.1539 -8.77424 14.2681
upperback 16.9352 1.20697 5.74913
thorax -1.11563 2.48076 -0.534112
lowerneck -8.01956 -7.81541 -1.08607
upperneck -28.8737 -9.43494 2.49005
head -7.4795 -4.08038 1.28045
rclavicle -1.90833e-014 3.18055e-015
rhumerus 15.2809 20.6073 -52.6121
rradius 30.5491
rwrist 1.85927
rhand -15.6545 5.86908
rfingers 7.12502
rthumb 10.5334 -23.847
lclavicle -1.90833e-014 3.18055e-015
lhumerus 2.30342 -39.0952 78.5242
lradius 46.5599
lwrist 19.5067
lhand -11.2315 -9.73827
lfingers 7.12502
lthumb 14.7974 19.7134
rfemur -34.0937 -6.53881 16.2341
rtibia 64.576
rfoot -23.5069 -9.42319
rtoes -11.9178
lfemur -34.3918 -2.24964 -25.5737
ltibia 68.2334
lfoot -14.6474 -7.09969
ltoes -16.2451
192
root 8.81393 16.1764 -2.31818 870.808 83.1967 -210.048
lowerback 50.752 -8.65354 14.2925
upperback 16.7583 1.21256 5.63688
thorax -1.26884 2.46582 -0.69658
lowerneck -8.09341 -7.86921 -1.41141
upperneck -28.4369 -9.45868 2.66074
head -7.28952 -4.08416 1.37367
rclavicle -7.63333e-014 -9.38264e-014
rhumerus 13.73 21.3189 -53.8038
rradius 31.0931
rwrist 1.95608
rhand -15.3919 5.99632
rfingers 7.12502
rthumb 10.7868 -23.7067
lclavicle -7.63333e-014 -9.38264e-014
lhumerus 1.09076 -39.2929 79.2523
lradius 46.3398
lwrist 19.7975
lhand -11.1895 -9.7092
lfingers 7.12502
lthumb 14.838 19.7395
rfemur -32.6523 -6.50729 16.6231
rtibia 63.5313
rfoot -23.5269 -9.55951
rtoes -11.6087
lfemur -33.9028 -2.27827 -25.1613
ltibia 68.3341
lfoot -13.6785 -6.77599
ltoes -17.0558
193
root 8.91851 16.2388 -2.2955 872.955 83.1578 -207.504
lowerback 50.2638 -8.52912 14.2676
upperback 16.7184 1.18907 5.50993
thorax -1.26372 2.45593 -0.842541
lowerneck -8.53015 -7.95007 -1.74839
upperneck -27.8294 -9.49794 2.84814
head -6.98359 -4.0969 1.45332
rclavicle -1.27222e-014 -6.36111e-015
rhumerus 12.3192 21.8558 -54.9521
rradius 31.656
rwrist 2.11155
rhand -15.1896 6.04775
rfingers 7.12502
rthumb 10.9819 -23.645
lclavicle -1.27222e-014 -6.36111e-015
lhumerus 0.161392 -39.3693 79.8704
lradius 46.0514
lwrist 20.0454
lhand -11.1629 -9.66175
lfingers 7.12502
lthumb 14.8636 19.7851
rfemur -31.1827 -6.50416 16.9301
rtibia 62.4698
rfoot -23.5345 -9.65433
rtoes -11.0815
lfemur -33.436 -2.21738 -24.8341
ltibia 68.4469
lfoot -12.8721 -6.49713
ltoes -18.1656
194
root 9.02562 16.3003 -2.27327 875.298 83.1144 -204.727
lowerback 49.7642 -8.40238 14.2179
upperback 16.782 1.1762 5.44564
thorax -1.14283 2.46168 -0.910487
lowerneck -9.31819 -8.05858 -2.08428
upperneck -27.0818 -9.57854 2.90964
head -6.5861 -4.11895 1.47344
rclavicle -1.33583e-013 -4.92986e-014
rhumerus 11.1048 22.3003 -55.9519
rradius 32.1602
rwrist 2.17056
rhand -15.0914 6.13013
rfingers 7.12502
rthumb 11.0766 -23.5576
lclavicle -1.33583e-013 -4.92986e-014
lhumerus -0.529567 -39.3532 80.4437
lradius 45.7161
lwrist 20.4262
lhand -11.1803 -9.64915
lfingers 7.12502
lthumb 14.8468 19.7989
rfemur -29.65 -6.47573 17.2751
rtibia 61.3858
rfoot -23.5383 -9.79898
rtoes -10.8467
lfemur -32.9489 -2.10539 -24.4661
ltibia 68.5587
lfoot -12.1989 -6.23149
ltoes -19.3673
195
root 9.1354 16.3612 -2.25133 877.098 83.0395 -202.465
lowerback 49.2238 -8.25099 14.102
upperback 16.8918 1.15492 5.37895
thorax -0.969957 2.46638 -0.950733
lowerneck -10.0526 -8.17077 -2.48452
upperneck -26.3796 -9.63967 3.06081
head -6.20886 -4.13085 1.5348
rclavicle -1.90833e-014 1.59028e-015
rhumerus 9.92791 22.6536 -56.9405
rradius 32.6005
rwrist 2.3094
rhand -15.0467 6.21481
rfingers 7.12502
rthumb 11.1197 -23.4706
lclavicle -1.90833e-014 1.59028e-015
lhumerus -1.17822 -39.288 80.991
lradius 45.3832
lwrist 20.8073
lhand -11.229 -9.57038
lfingers 7.12502
lthumb 14.7999 19.8811
rfemur -28.0943 -6.46629 17.5407
rtibia 60.315
rfoot -23.5493 -9.88876
rtoes -10.2449
lfemur -32.4183 -1.97129 -24.1607
ltibia 68.612
lfoot -11.548 -6.02062
ltoes -20.1808
196
root 9.2459 16.4153 -2.2299 878.824 82.9491 -200.305
lowerback 48.6176 -8.07631 13.9774
upperback 16.9844 1.13463 5.2892
thorax -0.805056 2.46831 -1.01557
lowerneck -10.6304 -8.2481 -2.71625
upperneck -25.7132 -9.67968 3.15771
head -5.88324 -4.14718 1.55931
rclavicle 7.31528e-014 9.54166e-014
rhumerus 8.663 22.9041 -58.0887
rradius 32.9904
rwrist 2.43237
rhand -15.1225 6.35279
rfingers 7.12502
rthumb 11.0466 -23.3365
lclavicle 7.31528e-014 9.54166e-014
lhumerus -1.89999 -39.1513 81.5424
lradius 45.0455
lwrist 21.1857
lhand -11.2516 -9.51551
lfingers 7.12502
lthumb 14.7781 19.9376
rfemur -26.5873 -6.45952 17.8087
rtibia 59.2682
rfoot -23.5482 -10.0105
rtoes -10.0025
lfemur -31.9152 -1.82983 -23.8629
ltibia 68.6
lfoot -10.9958 -5.80418
ltoes -20.8314
197
root 9.35825 16.4652 -2.20859 880.26 82.8383 -198.42
lowerback 47.9873 -7.85351 13.813
upperback 17.0411 1.14721 5.2283
thorax -0.675619 2.47497 -1.04669
lowerneck -10.8952 -8.31959 -2.90587
upperneck -25.1671 -9.74224 3.2228
head -5.65009 -4.1784 1.58375
rclavicle -6.67916e-014 6.36111e-015
rhumerus 7.26911 23.0269 -59.2823
rradius 33.3062
rwrist 2.65511
rhand -15.2493 6.59278
rfingers 7.12502
rthumb 10.9243 -23.103
lclavicle -6.67916e-014 6.36111e-015
lhumerus -2.76429 -38.9792 82.2295
lradius 44.7061
lwrist 21.5569
lhand -11.2385 -9.4347
lfingers 7.12502
lthumb 14.7907 20.0175
rfemur -25.0718 -6.45851 18.0427
rtibia 58.2509
rfoot -23.5864 -10.1561
rtoes -9.6543
lfemur -31.3592 -1.69196 -23.5906
ltibia 68.4885
lfoot -10.5751 -5.58957
ltoes -20.9243
